ffmpeg started on 2025-05-12 at 13:48:46
Report written to "D:\Convert\FFMetrics\reports\ssim_report-6.txt"
Log level: 32
Command line:
ffmpeg -hide_banner -nostdin -i "G:\\\xc0\xed\xe8\xec\xe5\\\xce\xed\xe3\xee\xe8\xed\xe3\xe8\\!_35_\xcb\xe5\xf2\xee_2024\\DreamCast\\\xc0\xf2\xf0\xe8 - \xcc\xee\xe8 \xe4\xee\xf0\xee\xe3\xe8\xe5 \xec\xee\xec\xe5\xed\xf2\xfb\\[DC] Atri - My Dear Moments - 09_Telegram_HEVC.mkv" -i "G:\\\xc0\xed\xe8\xec\xe5\\\xce\xed\xe3\xee\xe8\xed\xe3\xe8\\!_35_\xcb\xe5\xf2\xee_2024\\DreamCast\\\xc0\xf2\xf0\xe8 - \xcc\xee\xe8 \xe4\xee\xf0\xee\xe3\xe8\xe5 \xec\xee\xec\xe5\xed\xf2\xfb\\[DC] Atri - My Dear Moments - 09_Telegram.mp4" -lavfi "[0:v]settb=AVTB,setpts=PTS-STARTPTS,format=pix_fmts=yuv420p10,fps=24000/1001,scale=1920:1080:flags=bicubic[main];[1:v]settb=AVTB,setpts=PTS-STARTPTS,format=pix_fmts=yuv420p,fps=24000/1001,scale=1920:1080:flags=bicubic[ref];[main][ref]ssim=eof_action=endall:stats_file='D\\:/Convert/FFMetrics/logs/ssim_logfile-6.txt'" -f null -
Input #0, matroska,webm, from 'G:\Аниме\Онгоинги\!_35_Лето_2024\DreamCast\Атри - Мои дорогие моменты\[DC] Atri - My Dear Moments - 09_Telegram_HEVC.mkv':
  Metadata:
    COMPATIBLE_BRANDS: isomiso2avc1mp41
    MAJOR_BRAND     : isom
    MINOR_VERSION   : 512
    ENCODER         : Lavf61.7.100
  Duration: 00:25:16.63, start: -0.021000, bitrate: 1025 kb/s
  Stream #0:0: Video: hevc (Main 10), yuv420p10le(tv, bt709, progressive), 1920x1080 [SAR 1:1 DAR 16:9], 23.98 fps, 23.98 tbr, 1k tbn (default)
      Metadata:
        HANDLER_NAME    : VideoHandler
        VENDOR_ID       : [0][0][0][0]
        ENCODER         : Lavc61.19.100 libx265
        BPS             : 828236
        DURATION        : 00:25:16.514708333
        NUMBER_OF_FRAMES: 36360
        NUMBER_OF_BYTES : 157003949
        _STATISTICS_WRITING_APP: mkvpropedit v66.0.0 ('Josie') 64-bit
        _STATISTICS_WRITING_DATE_UTC: 2025-05-06 15:02:10
        _STATISTICS_TAGS: BPS DURATION NUMBER_OF_FRAMES NUMBER_OF_BYTES
  Stream #0:1: Audio: aac (LC), 48000 Hz, stereo, fltp (default)
      Metadata:
        HANDLER_NAME    : SoundHandler
        VENDOR_ID       : [0][0][0][0]
        ENCODER         : Lavc61.19.100 aac
        BPS             : 193539
        DURATION        : 00:25:16.629000000
        NUMBER_OF_FRAMES: 71093
        NUMBER_OF_BYTES : 36691028
        _STATISTICS_WRITING_APP: mkvpropedit v66.0.0 ('Josie') 64-bit
        _STATISTICS_WRITING_DATE_UTC: 2025-05-06 15:02:10
        _STATISTICS_TAGS: BPS DURATION NUMBER_OF_FRAMES NUMBER_OF_BYTES
Input #1, mov,mp4,m4a,3gp,3g2,mj2, from 'G:\Аниме\Онгоинги\!_35_Лето_2024\DreamCast\Атри - Мои дорогие моменты\[DC] Atri - My Dear Moments - 09_Telegram.mp4':
  Metadata:
    major_brand     : isom
    minor_version   : 512
    compatible_brands: isomiso2avc1mp41
    encoder         : Lavf61.1.100
  Duration: 00:25:16.58, start: 0.000000, bitrate: 3528 kb/s
  Stream #1:0[0x1](und): Video: h264 (High) (avc1 / 0x31637661), yuv420p(tv, bt709, progressive), 1920x1080 [SAR 1:1 DAR 16:9], 3380 kb/s, 23.98 fps, 23.98 tbr, 24k tbn (default)
      Metadata:
        handler_name    : VideoHandler
        vendor_id       : [0][0][0][0]
        encoder         : Lavc61.3.100 h264_qsv
  Stream #1:1[0x2](und): Audio: aac (HE-AACv2) (mp4a / 0x6134706D), 48000 Hz, stereo, fltp, 144 kb/s (default)
      Metadata:
        handler_name    : SoundHandler
        vendor_id       : [0][0][0][0]
Stream mapping:
  Stream #0:0 (hevc) -> settb:default
  Stream #1:0 (h264) -> settb:default
  ssim:default -> Stream #0:0 (wrapped_avframe)
  Stream #0:1 -> #0:1 (aac (native) -> pcm_s16le (native))
Output #0, null, to 'pipe:':
  Metadata:
    COMPATIBLE_BRANDS: isomiso2avc1mp41
    MAJOR_BRAND     : isom
    MINOR_VERSION   : 512
    encoder         : Lavf61.7.100
  Stream #0:0: Video: wrapped_avframe, yuv420p10le(tv, bt709, progressive), 1920x1080 [SAR 1:1 DAR 16:9], q=2-31, 200 kb/s, 23.98 fps, 23.98 tbn
      Metadata:
        encoder         : Lavc61.19.100 wrapped_avframe
  Stream #0:1: Audio: pcm_s16le, 48000 Hz, stereo, s16, 1536 kb/s (default)
      Metadata:
        HANDLER_NAME    : SoundHandler
        VENDOR_ID       : [0][0][0][0]
        _STATISTICS_TAGS: BPS DURATION NUMBER_OF_FRAMES NUMBER_OF_BYTES
        BPS             : 193539
        DURATION        : 00:25:16.629000000
        NUMBER_OF_FRAMES: 71093
        NUMBER_OF_BYTES : 36691028
        _STATISTICS_WRITING_APP: mkvpropedit v66.0.0 ('Josie') 64-bit
        _STATISTICS_WRITING_DATE_UTC: 2025-05-06 15:02:10
        encoder         : Lavc61.19.100 pcm_s16le
frame=  161 fps=0.0 q=-0.0 size=N/A time=00:00:06.71 bitrate=N/A speed=12.9x    frame=  409 fps=398 q=-0.0 size=N/A time=00:00:17.05 bitrate=N/A speed=16.6x    frame=  673 fps=433 q=-0.0 size=N/A time=00:00:28.06 bitrate=N/A speed=18.1x    frame=  928 fps=450 q=-0.0 size=N/A time=00:00:38.70 bitrate=N/A speed=18.8x    frame= 1204 fps=468 q=-0.0 size=N/A time=00:00:50.21 bitrate=N/A speed=19.5x    frame= 1460 fps=471 q=-0.0 size=N/A time=00:01:00.89 bitrate=N/A speed=19.7x    frame= 1714 fps=475 q=-0.0 size=N/A time=00:01:11.48 bitrate=N/A speed=19.8x    frame= 1983 fps=481 q=-0.0 size=N/A time=00:01:22.70 bitrate=N/A speed=20.1x    frame= 2270 fps=489 q=-0.0 size=N/A time=00:01:34.67 bitrate=N/A speed=20.4x    frame= 2523 fps=490 q=-0.0 size=N/A time=00:01:45.23 bitrate=N/A speed=20.4x    frame= 2799 fps=493 q=-0.0 size=N/A time=00:01:56.74 bitrate=N/A speed=20.6x    frame= 3024 fps=489 q=-0.0 size=N/A time=00:02:06.12 bitrate=N/A speed=20.4x    frame= 3255 fps=485 q=-0.0 size=N/A time=00:02:15.76 bitrate=N/A speed=20.2x    frame= 3476 fps=482 q=-0.0 size=N/A time=00:02:24.97 bitrate=N/A speed=20.1x    frame= 3683 fps=476 q=-0.0 size=N/A time=00:02:33.61 bitrate=N/A speed=19.9x    frame= 3886 fps=471 q=-0.0 size=N/A time=00:02:42.07 bitrate=N/A speed=19.7x    frame= 4115 fps=469 q=-0.0 size=N/A time=00:02:51.62 bitrate=N/A speed=19.6x    frame= 4343 fps=468 q=-0.0 size=N/A time=00:03:01.13 bitrate=N/A speed=19.5x    frame= 4566 fps=466 q=-0.0 size=N/A time=00:03:10.44 bitrate=N/A speed=19.4x    frame= 4804 fps=466 q=-0.0 size=N/A time=00:03:20.36 bitrate=N/A speed=19.4x    frame= 5032 fps=465 q=-0.0 size=N/A time=00:03:29.87 bitrate=N/A speed=19.4x    frame= 5279 fps=465 q=-0.0 size=N/A time=00:03:40.17 bitrate=N/A speed=19.4x    frame= 5512 fps=465 q=-0.0 size=N/A time=00:03:49.89 bitrate=N/A speed=19.4x    frame= 5752 fps=465 q=-0.0 size=N/A time=00:03:59.90 bitrate=N/A speed=19.4x    frame= 6004 fps=466 q=-0.0 size=N/A time=00:04:10.41 bitrate=N/A speed=19.4x    frame= 6214 fps=464 q=-0.0 size=N/A time=00:04:19.17 bitrate=N/A speed=19.3x    frame= 6486 fps=466 q=-0.0 size=N/A time=00:04:30.52 bitrate=N/A speed=19.4x    frame= 6766 fps=469 q=-0.0 size=N/A time=00:04:42.19 bitrate=N/A speed=19.6x    frame= 7044 fps=471 q=-0.0 size=N/A time=00:04:53.79 bitrate=N/A speed=19.6x    frame= 7323 fps=473 q=-0.0 size=N/A time=00:05:05.43 bitrate=N/A speed=19.7x    frame= 7596 fps=475 q=-0.0 size=N/A time=00:05:16.81 bitrate=N/A speed=19.8x    frame= 7876 fps=477 q=-0.0 size=N/A time=00:05:28.49 bitrate=N/A speed=19.9x    frame= 8109 fps=477 q=-0.0 size=N/A time=00:05:38.21 bitrate=N/A speed=19.9x    frame= 8375 fps=478 q=-0.0 size=N/A time=00:05:49.30 bitrate=N/A speed=19.9x    frame= 8637 fps=479 q=-0.0 size=N/A time=00:06:00.23 bitrate=N/A speed=  20x    frame= 8922 fps=480 q=-0.0 size=N/A time=00:06:12.12 bitrate=N/A speed=  20x    frame= 9195 fps=482 q=-0.0 size=N/A time=00:06:23.50 bitrate=N/A speed=20.1x    frame= 9462 fps=483 q=-0.0 size=N/A time=00:06:34.64 bitrate=N/A speed=20.1x    frame= 9734 fps=484 q=-0.0 size=N/A time=00:06:45.98 bitrate=N/A speed=20.2x    frame= 9994 fps=485 q=-0.0 size=N/A time=00:06:56.83 bitrate=N/A speed=20.2x    frame=10272 fps=486 q=-0.0 size=N/A time=00:07:08.42 bitrate=N/A speed=20.3x    frame=10533 fps=486 q=-0.0 size=N/A time=00:07:19.31 bitrate=N/A speed=20.3x    frame=10802 fps=487 q=-0.0 size=N/A time=00:07:30.53 bitrate=N/A speed=20.3x    frame=11085 fps=489 q=-0.0 size=N/A time=00:07:42.33 bitrate=N/A speed=20.4x    frame=11344 fps=489 q=-0.0 size=N/A time=00:07:53.13 bitrate=N/A speed=20.4x    frame=11608 fps=489 q=-0.0 size=N/A time=00:08:04.15 bitrate=N/A speed=20.4x    frame=11848 fps=489 q=-0.0 size=N/A time=00:08:14.16 bitrate=N/A speed=20.4x    frame=12127 fps=490 q=-0.0 size=N/A time=00:08:25.79 bitrate=N/A speed=20.4x    frame=12389 fps=490 q=-0.0 size=N/A time=00:08:36.72 bitrate=N/A speed=20.5x    frame=12661 fps=491 q=-0.0 size=N/A time=00:08:48.06 bitrate=N/A speed=20.5x    frame=12904 fps=491 q=-0.0 size=N/A time=00:08:58.20 bitrate=N/A speed=20.5x    frame=13160 fps=491 q=-0.0 size=N/A time=00:09:08.88 bitrate=N/A speed=20.5x    frame=13426 fps=491 q=-0.0 size=N/A time=00:09:19.97 bitrate=N/A speed=20.5x    frame=13687 fps=491 q=-0.0 size=N/A time=00:09:30.86 bitrate=N/A speed=20.5x    frame=13947 fps=492 q=-0.0 size=N/A time=00:09:41.70 bitrate=N/A speed=20.5x    frame=14222 fps=492 q=-0.0 size=N/A time=00:09:53.17 bitrate=N/A speed=20.5x    frame=14465 fps=492 q=-0.0 size=N/A time=00:10:03.31 bitrate=N/A speed=20.5x    frame=14694 fps=491 q=-0.0 size=N/A time=00:10:12.86 bitrate=N/A speed=20.5x    frame=14908 fps=490 q=-0.0 size=N/A time=00:10:21.78 bitrate=N/A speed=20.4x    frame=15144 fps=490 q=-0.0 size=N/A time=00:10:31.63 bitrate=N/A speed=20.4x    frame=15364 fps=489 q=-0.0 size=N/A time=00:10:40.80 bitrate=N/A speed=20.4x    frame=15591 fps=488 q=-0.0 size=N/A time=00:10:50.27 bitrate=N/A speed=20.3x    frame=15865 fps=488 q=-0.0 size=N/A time=00:11:01.70 bitrate=N/A speed=20.4x    frame=16080 fps=487 q=-0.0 size=N/A time=00:11:10.67 bitrate=N/A speed=20.3x    frame=16330 fps=487 q=-0.0 size=N/A time=00:11:21.09 bitrate=N/A speed=20.3x    frame=16602 fps=488 q=-0.0 size=N/A time=00:11:32.44 bitrate=N/A speed=20.3x    frame=16877 fps=489 q=-0.0 size=N/A time=00:11:43.91 bitrate=N/A speed=20.4x    frame=17154 fps=489 q=-0.0 size=N/A time=00:11:55.46 bitrate=N/A speed=20.4x    frame=17417 fps=490 q=-0.0 size=N/A time=00:12:06.43 bitrate=N/A speed=20.4x    frame=17676 fps=490 q=-0.0 size=N/A time=00:12:17.23 bitrate=N/A speed=20.4x    frame=17934 fps=490 q=-0.0 size=N/A time=00:12:27.99 bitrate=N/A speed=20.4x    frame=18205 fps=490 q=-0.0 size=N/A time=00:12:39.30 bitrate=N/A speed=20.5x    frame=18486 fps=491 q=-0.0 size=N/A time=00:12:51.02 bitrate=N/A speed=20.5x    frame=18752 fps=492 q=-0.0 size=N/A time=00:13:02.11 bitrate=N/A speed=20.5x    frame=19017 fps=492 q=-0.0 size=N/A time=00:13:13.16 bitrate=N/A speed=20.5x    frame=19284 fps=492 q=-0.0 size=N/A time=00:13:24.30 bitrate=N/A speed=20.5x    frame=19556 fps=492 q=-0.0 size=N/A time=00:13:35.64 bitrate=N/A speed=20.5x    frame=19819 fps=493 q=-0.0 size=N/A time=00:13:46.61 bitrate=N/A speed=20.6x    frame=20068 fps=493 q=-0.0 size=N/A time=00:13:57.04 bitrate=N/A speed=20.5x    frame=20335 fps=493 q=-0.0 size=N/A time=00:14:08.13 bitrate=N/A speed=20.6x    frame=20596 fps=493 q=-0.0 size=N/A time=00:14:19.02 bitrate=N/A speed=20.6x    frame=20882 fps=494 q=-0.0 size=N/A time=00:14:30.95 bitrate=N/A speed=20.6x    frame=21133 fps=494 q=-0.0 size=N/A time=00:14:41.42 bitrate=N/A speed=20.6x    frame=21403 fps=494 q=-0.0 size=N/A time=00:14:52.68 bitrate=N/A speed=20.6x    frame=21652 fps=494 q=-0.0 size=N/A time=00:15:03.06 bitrate=N/A speed=20.6x    frame=21914 fps=494 q=-0.0 size=N/A time=00:15:13.99 bitrate=N/A speed=20.6x    frame=22172 fps=494 q=-0.0 size=N/A time=00:15:24.75 bitrate=N/A speed=20.6x    frame=22439 fps=494 q=-0.0 size=N/A time=00:15:35.89 bitrate=N/A speed=20.6x    frame=22707 fps=495 q=-0.0 size=N/A time=00:15:47.07 bitrate=N/A speed=20.6x    frame=22992 fps=495 q=-0.0 size=N/A time=00:15:58.95 bitrate=N/A speed=20.7x    frame=23266 fps=496 q=-0.0 size=N/A time=00:16:10.38 bitrate=N/A speed=20.7x    frame=23537 fps=496 q=-0.0 size=N/A time=00:16:21.68 bitrate=N/A speed=20.7x    frame=23801 fps=496 q=-0.0 size=N/A time=00:16:32.70 bitrate=N/A speed=20.7x    frame=24077 fps=497 q=-0.0 size=N/A time=00:16:44.21 bitrate=N/A speed=20.7x    frame=24316 fps=496 q=-0.0 size=N/A time=00:16:54.17 bitrate=N/A speed=20.7x    frame=24559 fps=496 q=-0.0 size=N/A time=00:17:04.31 bitrate=N/A speed=20.7x    frame=24835 fps=496 q=-0.0 size=N/A time=00:17:15.82 bitrate=N/A speed=20.7x    frame=25082 fps=496 q=-0.0 size=N/A time=00:17:26.12 bitrate=N/A speed=20.7x    frame=25315 fps=496 q=-0.0 size=N/A time=00:17:35.84 bitrate=N/A speed=20.7x    frame=25523 fps=495 q=-0.0 size=N/A time=00:17:44.52 bitrate=N/A speed=20.6x    frame=25733 fps=494 q=-0.0 size=N/A time=00:17:53.28 bitrate=N/A speed=20.6x    frame=25974 fps=494 q=-0.0 size=N/A time=00:18:03.33 bitrate=N/A speed=20.6x    frame=26229 fps=494 q=-0.0 size=N/A time=00:18:13.96 bitrate=N/A speed=20.6x    frame=26505 fps=494 q=-0.0 size=N/A time=00:18:25.47 bitrate=N/A speed=20.6x    frame=26766 fps=494 q=-0.0 size=N/A time=00:18:36.36 bitrate=N/A speed=20.6x    frame=27010 fps=494 q=-0.0 size=N/A time=00:18:46.54 bitrate=N/A speed=20.6x    frame=27259 fps=494 q=-0.0 size=N/A time=00:18:56.92 bitrate=N/A speed=20.6x    frame=27496 fps=494 q=-0.0 size=N/A time=00:19:06.81 bitrate=N/A speed=20.6x    frame=27721 fps=493 q=-0.0 size=N/A time=00:19:16.19 bitrate=N/A speed=20.6x    frame=27950 fps=493 q=-0.0 size=N/A time=00:19:25.74 bitrate=N/A speed=20.6x    frame=28183 fps=492 q=-0.0 size=N/A time=00:19:35.46 bitrate=N/A speed=20.5x    frame=28399 fps=492 q=-0.0 size=N/A time=00:19:44.47 bitrate=N/A speed=20.5x    frame=28627 fps=491 q=-0.0 size=N/A time=00:19:53.98 bitrate=N/A speed=20.5x    frame=28830 fps=490 q=-0.0 size=N/A time=00:20:02.45 bitrate=N/A speed=20.5x    frame=29043 fps=490 q=-0.0 size=N/A time=00:20:11.33 bitrate=N/A speed=20.4x    frame=29278 fps=489 q=-0.0 size=N/A time=00:20:21.13 bitrate=N/A speed=20.4x    frame=29494 fps=489 q=-0.0 size=N/A time=00:20:30.14 bitrate=N/A speed=20.4x    frame=29709 fps=488 q=-0.0 size=N/A time=00:20:39.11 bitrate=N/A speed=20.4x    frame=29939 fps=488 q=-0.0 size=N/A time=00:20:48.70 bitrate=N/A speed=20.3x    frame=30154 fps=487 q=-0.0 size=N/A time=00:20:57.67 bitrate=N/A speed=20.3x    frame=30367 fps=487 q=-0.0 size=N/A time=00:21:06.55 bitrate=N/A speed=20.3x    frame=30589 fps=486 q=-0.0 size=N/A time=00:21:15.81 bitrate=N/A speed=20.3x    frame=30805 fps=486 q=-0.0 size=N/A time=00:21:24.82 bitrate=N/A speed=20.3x    frame=31032 fps=485 q=-0.0 size=N/A time=00:21:34.29 bitrate=N/A speed=20.2x    frame=31256 fps=485 q=-0.0 size=N/A time=00:21:43.63 bitrate=N/A speed=20.2x    frame=31491 fps=485 q=-0.0 size=N/A time=00:21:53.43 bitrate=N/A speed=20.2x    frame=31723 fps=484 q=-0.0 size=N/A time=00:22:03.11 bitrate=N/A speed=20.2x    frame=31969 fps=484 q=-0.0 size=N/A time=00:22:13.37 bitrate=N/A speed=20.2x    frame=32183 fps=484 q=-0.0 size=N/A time=00:22:22.29 bitrate=N/A speed=20.2x    frame=32408 fps=483 q=-0.0 size=N/A time=00:22:31.68 bitrate=N/A speed=20.2x    frame=32634 fps=483 q=-0.0 size=N/A time=00:22:41.10 bitrate=N/A speed=20.1x    frame=32841 fps=483 q=-0.0 size=N/A time=00:22:49.74 bitrate=N/A speed=20.1x    frame=33072 fps=482 q=-0.0 size=N/A time=00:22:59.37 bitrate=N/A speed=20.1x    frame=33302 fps=482 q=-0.0 size=N/A time=00:23:08.97 bitrate=N/A speed=20.1x    frame=33524 fps=482 q=-0.0 size=N/A time=00:23:18.23 bitrate=N/A speed=20.1x    frame=33771 fps=482 q=-0.0 size=N/A time=00:23:28.53 bitrate=N/A speed=20.1x    frame=33999 fps=481 q=-0.0 size=N/A time=00:23:38.04 bitrate=N/A speed=20.1x    frame=34214 fps=481 q=-0.0 size=N/A time=00:23:47.00 bitrate=N/A speed=20.1x    frame=34451 fps=481 q=-0.0 size=N/A time=00:23:56.89 bitrate=N/A speed=  20x    frame=34648 fps=480 q=-0.0 size=N/A time=00:24:05.11 bitrate=N/A speed=  20x    frame=34833 fps=479 q=-0.0 size=N/A time=00:24:12.82 bitrate=N/A speed=  20x    frame=35047 fps=479 q=-0.0 size=N/A time=00:24:21.75 bitrate=N/A speed=  20x    frame=35231 fps=478 q=-0.0 size=N/A time=00:24:29.42 bitrate=N/A speed=19.9x    frame=35405 fps=477 q=-0.0 size=N/A time=00:24:36.68 bitrate=N/A speed=19.9x    frame=35586 fps=476 q=-0.0 size=N/A time=00:24:44.23 bitrate=N/A speed=19.9x    frame=35789 fps=475 q=-0.0 size=N/A time=00:24:52.69 bitrate=N/A speed=19.8x    frame=35963 fps=475 q=-0.0 size=N/A time=00:24:59.95 bitrate=N/A speed=19.8x    frame=36195 fps=474 q=-0.0 size=N/A time=00:25:09.63 bitrate=N/A speed=19.8x    [Parsed_ssim_10 @ 000002abc4a7e4c0] SSIM Y:0.993888 (22.138393) U:0.995436 (23.406373) V:0.995496 (23.463995) All:0.994414 (22.529130)
[out#0/null @ 000002abc4a8e900] video:15623KiB audio:284372KiB subtitle:0KiB other streams:0KiB global headers:0KiB muxing overhead: unknown
frame=36360 fps=474 q=-0.0 Lsize=N/A time=00:25:16.51 bitrate=N/A speed=19.8x    
